<svg width="900" height="450" xmlns="http://www.w3.org/2000/svg" version="1.1">

 <g>
  <title>Layer 1</title>
  <rect transform="rotate(180 450 225)" id="svg_1" fill="#000" height="450" width="900" y="0" x="0"/>
  <path transform="rotate(180 450 362.902)" id="svg_2" stroke-linecap="round" fill="#ff5404" d="m0,417l21.5,-11.3c21.5,-11.4 64.5,-34 107.3,-34.5c42.9,-0.5 85.5,21.1 128.4,38.8c42.8,17.7 85.8,31.3 128.6,35.3c42.9,4 85.5,-1.6 128.4,-4.1c42.8,-2.5 85.8,-1.9 128.6,3c42.9,4.8 85.5,13.8 128.4,13.6c42.8,-0.1 85.8,-9.5 107.3,-14.1l21.5,-4.7l0,-171l-21.5,0c-21.5,0 -64.5,0 -107.3,0c-42.9,0 -85.5,0 -128.4,0c-42.8,0 -85.8,0 -128.6,0c-42.9,0 -85.5,0 -128.4,0c-42.8,0 -85.8,0 -128.6,0c-42.9,0 -85.5,0 -128.4,0c-42.8,0 -85.8,0 -107.3,0l-21.5,0l0,149z"/>
 </g>
</svg>