<svg id="visual" viewBox="0 0 900 450" width="900" height="450" xmlns="http://www.w3.org/2000/svg" xmlns:xlink="http://www.w3.org/1999/xlink" version="1.1"><rect x="0" y="0" width="900" height="450" fill="#000"></rect><path d="M0 149L21.5 137.7C43 126.3 86 103.7 128.8 103.2C171.7 102.7 214.3 124.3 257.2 142C300 159.7 343 173.3 385.8 177.3C428.7 181.3 471.3 175.7 514.2 173.2C557 170.7 600 171.3 642.8 176.2C685.7 181 728.3 190 771.2 189.8C814 189.7 857 180.3 878.5 175.7L900 171L900 0L878.5 0C857 0 814 0 771.2 0C728.3 0 685.7 0 642.8 0C600 0 557 0 514.2 0C471.3 0 428.7 0 385.8 0C343 0 300 0 257.2 0C214.3 0 171.7 0 128.8 0C86 0 43 0 21.5 0L0 0Z" fill="#ff5404" stroke-linecap="round" stroke-linejoin="miter"></path></svg>